# xmcd CD database file
# Copyright (C) 1993-1998 Ti Kan
#
# Track frame offsets:
#	150
#	14875
#	27952
#	37375
#	52060
#	65265
#	79370
#	97412
#	108892
#	123597
#
# Disc length: 1871 seconds
#
# Revision: 1
# Processed by: cddbd v1.4b41PL1 Copyright (c) Steve Scherf et al.
# Submitted via: DiscPlay 3.3.1
#
DISCID=96074d0a
DTITLE=Clint Black - Put Yourself In My Shoes
DYEAR=1900
DGENRE=
TTITLE0=Put Yourself In My Shoes
TTITLE1=The Gulf Of Mexico
TTITLE2=One More Payment
TTITLE3=Where Are You Now
TTITLE4=The Old Man
TTITLE5=This Nightlife
TTITLE6=Loving Blind
TTITLE7=Muddy Water
TTITLE8=A Heart Like Mine
TTITLE9=The Goodnight-Loving
EXTD=
EXTT0=
EXTT1=
EXTT2=
EXTT3=
EXTT4=
EXTT5=
EXTT6=
EXTT7=
EXTT8=
EXTT9=
PLAYORDER=
